<svg width="1500" height="2000" viewBox="0 0 1500 2000" fill="none" xmlns="http://www.w3.org/2000/svg">
<g clip-path="url(#clip0_1_63)">
<rect width="1500" height="2000" transform="translate(1500 2000) rotate(-180)" fill="white"/>
<path d="M147 1861.47C121.4 1768.67 38.3333 1755.81 0 1760.97V2000.47H135.5C157.1 1958.07 152.167 1890.14 147 1861.47Z" fill="#DAF1FF"/>
<path d="M281.516 1135.41C299.4 1135.57 317.005 1138.41 334.689 1140.57C358.003 1143.4 379.36 1152.39 401.196 1159.58C417.044 1164.77 431.735 1173.72 446.505 1181.78C455.487 1186.66 463.511 1193.21 472.174 1198.72C485.826 1207.39 496.725 1218.85 506.545 1231.51C507.343 1232.55 508.302 1233.51 509.26 1234.43C522.952 1247.29 532.373 1263.06 540.437 1279.84C541.275 1281.63 542.473 1283.27 543.591 1284.87C555.567 1301.88 562.593 1321.1 567.742 1340.99C570.377 1351.17 571.295 1361.79 573.012 1372.18C573.211 1373.5 573.171 1374.89 573.69 1376.09C579.159 1388.99 578.96 1402.57 579.08 1416.23C579.239 1432.81 580.237 1449.34 580.996 1465.88C581.555 1477.78 583.83 1489.8 582.632 1501.54C579.199 1536.09 581.355 1570.64 581.155 1605.15C581.036 1624.6 584.948 1643.57 592.253 1662.02C597.882 1676.28 605.347 1688.86 616.485 1698.97C627.982 1709.43 639.798 1719.7 652.492 1728.56C660.157 1733.91 669.538 1737.19 678.6 1739.99C693.011 1744.42 707.702 1748.25 722.512 1751.21C734.408 1753.61 746.105 1758.12 758.64 1756.56C760.476 1756.32 762.472 1757.28 764.388 1757.68C768.5 1758.6 772.532 1759.96 776.684 1760.36C794.408 1762.03 812.093 1763.71 829.338 1768.66C836.444 1770.7 844.188 1770.58 851.414 1772.38C871.334 1777.21 891.174 1782.32 910.935 1787.75C934.767 1794.26 956.922 1804.93 977.441 1818.39C991.094 1827.33 1004.75 1836.52 1014.53 1850.58C1022.39 1861.88 1032.53 1871.59 1041.03 1882.45C1050.49 1894.55 1056.2 1908.73 1062.19 1922.79C1071.09 1943.76 1073.53 1966.09 1077.92 1988.01L1077.92 2011L1031.81 2011L974.687 2011L915.326 2011C915.326 2011 877.482 2018.61 858.759 2026.95C845.825 2032.71 833.17 2039.06 820.436 2045.21C813.091 2048.76 805.745 2052.4 798.4 2055.99C792.412 2049.92 788.141 2049.08 781.195 2052.08C774.089 2055.15 772.253 2060.9 772.692 2067.93C759.199 2071.89 745.706 2075.88 732.173 2079.72C728.42 2080.75 724.508 2081.23 720.676 2081.99C719.798 2076.52 718.241 2071.45 711.854 2070.17C705.586 2068.93 700.476 2071.81 697.323 2076.68C695.327 2079.76 695.406 2084.15 694.568 2087.94C685.626 2088.46 676.724 2089.02 667.782 2089.54C669.299 2085.95 671.494 2082.47 672.173 2078.68C673.091 2073.37 668.061 2066.3 662.672 2065.06C657.962 2063.98 654.009 2066.38 651.814 2070.33C649.498 2074.56 648.181 2079.36 646.385 2083.91C642.552 2085.43 638.76 2085.39 634.928 2083.67C625.906 2079.64 616.804 2075.64 607.782 2071.65C608.9 2069.29 610.137 2066.97 611.175 2064.58C613.012 2060.46 613.69 2056.27 610.058 2052.76C606.345 2049.16 602.273 2047.36 596.764 2049.24C591.016 2051.16 587.423 2054.99 584.668 2059.99C564.628 2058.51 545.347 2052.56 525.188 2051.2C503.311 2049.72 482.074 2050 460.517 2054.75C444.589 2058.23 429.459 2062.5 415.687 2071.29C400.158 2068.77 384.789 2069.33 369.619 2073.96C350.657 2079.8 331.855 2085.87 314.37 2095.45C310.937 2097.33 307.104 2098.45 303.432 2099.93C302.394 2091.3 295.648 2086.19 290.338 2080.71C273.692 2063.42 254.729 2048.76 234.37 2035.94C231.416 2034.06 227.863 2033.19 224.59 2031.83C224.869 2024.92 225.548 2017.97 225.229 2011.1C225.069 2008.22 223.512 2004.27 221.317 2002.83C210.937 1996 199.999 1992.41 188.902 2001.71C186.027 2004.15 183.353 2006.82 180.598 2009.38C163.393 2006.27 146.227 2003.19 129.022 2000.08C129.341 1998.44 129.46 1996.72 130.059 1995.2C139.999 1970.24 142.554 1943.92 143.912 1917.44C144.79 1900.15 144.231 1882.89 137.644 1866.56C128.862 1844.79 118.123 1824.14 102.714 1806.21C88.5426 1789.67 70.8978 1778.61 49.9798 1772.78C42.355 1770.66 34.6906 1768.54 26.9461 1766.95C18.004 1765.11 8.98215 1763.83 0.000151585 1762.31C0.000165088 1607.86 0.000178586 1453.46 0.000192089 1299.01C7.22571 1291.9 14.4113 1284.75 21.6767 1277.68C25.3893 1274.05 29.2215 1270.57 33.0139 1267.02C34.1715 1265.94 35.6086 1265.02 36.4869 1263.74C46.9459 1248.2 60.8383 1236.1 75.1297 1224.28C83.4729 1217.41 90.858 1209.3 99.2013 1202.39C115.688 1188.77 132.375 1175.39 151.856 1166.05C160.838 1161.73 169.101 1155.82 178.363 1152.35C189.101 1148.31 200.558 1146.2 211.736 1143.24C215.927 1147.84 219.919 1152.67 224.39 1156.98C233.811 1166.13 248.622 1167.97 260.199 1161.85C270.538 1156.38 278.961 1149.47 280.119 1136.73C280.318 1136.37 281.077 1135.89 281.516 1135.41ZM279.041 2025.8L279.36 2025.64C283.632 2025.8 283.871 2023.2 283.232 2019.97C283.592 2019.61 283.871 2019.17 283.991 2018.65C290.498 2010.66 290.418 2006.59 283.552 2000.19C281.356 1996.32 279.24 1992.33 274.091 1991.81C270.658 1986.58 266.147 1987.89 261.556 1989.77C254.051 1989.73 249.5 1994.36 245.548 1999.92C241.436 2003.79 237.484 2014.73 238.841 2019.01C239.081 2019.73 240.318 2020.12 241.077 2020.68C241.676 2021.36 242.274 2022 242.873 2022.68C244.67 2026.52 245.827 2031.23 251.855 2029.39C252.414 2029.71 253.013 2029.91 253.652 2030.03C258.362 2034.86 263.193 2035.1 270.538 2030.87C272.175 2030.47 273.811 2030.03 275.448 2029.63C276.646 2028.35 277.843 2027.07 279.041 2025.8ZM247.863 1244.61C247.863 1247.29 247.265 1250.12 247.983 1252.52C249.221 1256.59 251.376 1260.43 253.093 1264.38C255.807 1270.57 265.668 1275.96 272.294 1274.64C281.196 1272.89 289.5 1270.09 295.408 1262.46C297.404 1259.87 300.039 1257.71 302.674 1255.67C306.865 1252.44 308.262 1248.56 306.666 1243.45C305.987 1241.25 305.827 1238.94 305.548 1236.62C303.592 1220.57 289.779 1210.22 274.131 1213.58C269.101 1214.66 262.953 1215.45 259.68 1218.73C252.853 1225.64 247.105 1233.87 247.863 1244.61ZM299.64 1167.77C299.64 1169.76 299.4 1171.76 299.68 1173.72C301.197 1185.22 308.183 1190.65 319.6 1189.17C322.194 1188.85 324.789 1188.09 327.224 1187.06C335.408 1183.62 342.274 1173.96 341.276 1166.49C339.719 1154.94 330.737 1146.68 316.526 1147.32C306.705 1147.8 299.6 1156.22 299.64 1167.77ZM889.018 1940.68C900.875 1945.88 914.487 1942.68 922.192 1933.1C923.19 1931.9 923.908 1930.26 924.188 1928.7C926.224 1917.6 919.916 1910.41 908.779 1910.05C903.31 1909.89 899.438 1911.85 895.805 1915.64C889.058 1922.71 886.903 1930.78 889.018 1940.68ZM860.396 1904.66C860.436 1895.87 853.569 1888.36 845.466 1888.36C837.801 1888.32 830.855 1895.03 830.536 1902.74C830.176 1911.01 836.484 1918.32 843.789 1918.2C855.446 1917.96 860.356 1913.96 860.396 1904.66ZM869.298 1950.23C861.234 1950.23 854.567 1957.22 854.448 1965.85C854.328 1973.59 859.278 1979.87 865.585 1979.91C875.246 1979.99 882.551 1972.64 882.312 1963.01C882.192 1957.22 875.086 1950.23 869.298 1950.23ZM630.776 2004.07C622.991 2004.11 616.045 2011.38 616.125 2019.41C616.165 2025.48 621.235 2030.31 627.742 2030.43C634.129 2030.55 644.109 2021.36 643.87 2015.57C643.63 2008.3 638.72 2004.03 630.776 2004.07ZM673.969 1976.19C667.822 1976.31 661.474 1982.38 661.634 1988.01C661.794 1994.16 669.219 2001.39 675.407 2001.39C681.834 2001.39 688.301 1994.72 687.941 1988.41C687.542 1981.02 681.873 1976.07 673.969 1976.19ZM731.055 2052.64C731.175 2059.15 735.326 2064.66 740.157 2064.7C747.861 2064.78 754.448 2058.03 754.448 2050.12C754.408 2042.25 750.416 2037.82 743.43 2037.9C735.885 2038.02 730.895 2043.93 731.055 2052.64ZM443.871 1852.58C434.569 1852.82 427.463 1858.33 426.026 1864.56C424.749 1870.23 425.827 1872.39 431.136 1874.62C437.084 1877.14 444.868 1874.58 449.419 1868.67C452.294 1864.96 453.451 1860.68 450.338 1856.93C448.302 1854.53 444.869 1853.26 443.871 1852.58ZM388.941 1877.1C396.366 1877.26 402.992 1870.87 403.032 1863.48C403.112 1857.25 399.759 1853.69 393.452 1853.3C385.867 1852.82 377.923 1860.56 378.122 1868.23C378.282 1873.74 382.194 1876.98 388.941 1877.1ZM719.838 1985.58C719.798 1991.73 724.907 1996.96 731.015 1996.96C737.881 1996.96 743.869 1990.13 743.949 1982.22C743.989 1977.15 739.119 1971.64 734.528 1971.6C726.384 1971.52 719.917 1977.63 719.838 1985.58ZM777.482 2026.28C784.588 2026.12 788.819 2021.6 788.739 2014.25C788.699 2007.46 784.228 2003.63 776.165 2003.51C769.777 2003.39 764.388 2009.02 764.628 2015.57C764.907 2021.88 770.336 2026.44 777.482 2026.28ZM415.887 1901.46C408.821 1900.66 402.114 1905.58 401.515 1911.89C400.956 1917.88 404.829 1922.35 411.376 1923.19C418.082 1924.07 424.709 1918.72 425.228 1912.01C425.707 1906.26 422.074 1902.14 415.887 1901.46ZM696.804 2008.5C689.977 2008.38 684.828 2013.49 684.908 2020.28C684.948 2025.8 690.297 2031.67 695.207 2031.63C701.554 2031.59 706.983 2026 707.023 2019.41C707.063 2012.86 703.111 2008.62 696.804 2008.5ZM682.872 2052.64C682.672 2059.23 685.866 2063.3 691.614 2063.7C698.88 2064.22 704.388 2059.15 704.508 2051.8C704.628 2045.57 701.115 2042.05 694.768 2042.05C687.822 2042.05 683.071 2046.29 682.872 2052.64ZM199.76 1601.59C199.84 1595.04 195.728 1590.77 189.5 1590.81C183.512 1590.89 178.522 1596.28 178.642 1602.59C178.762 1608.82 182.874 1611.42 191.137 1612.1C196.926 1612.58 198.921 1609.74 199.76 1601.59ZM644.429 2037.98C638.76 2038.18 633.291 2043.37 633.371 2048.48C633.451 2054.31 638.6 2059.87 643.71 2059.71C649.219 2059.51 656.405 2052.68 656.365 2047.6C656.365 2042.97 649.938 2037.82 644.429 2037.98Z" fill="#FEF6F3"/>
<path d="M281.516 1135.41C281.076 1135.89 280.318 1136.37 280.278 1136.89C279.08 1149.63 270.657 1156.54 260.358 1162.01C248.821 1168.13 233.971 1166.29 224.55 1157.14C220.079 1152.83 216.087 1148 211.895 1143.4C211.057 1135.21 210.378 1127.19 213.891 1119.24C217.045 1112.05 221.436 1106.06 227.304 1101.03C239.48 1090.6 261.915 1094.24 272.494 1107.82C278.841 1115.84 282.593 1124.87 281.516 1135.41Z" fill="#FFDBD0"/>
<path d="M247.864 1244.61C247.145 1233.91 252.854 1225.64 259.72 1218.77C262.993 1215.49 269.141 1214.7 274.171 1213.62C289.78 1210.26 303.632 1220.61 305.588 1236.66C305.867 1238.94 306.027 1241.3 306.706 1243.49C308.302 1248.6 306.865 1252.48 302.714 1255.71C300.119 1257.75 297.484 1259.91 295.448 1262.5C289.54 1270.13 281.197 1272.93 272.334 1274.68C265.708 1276 255.808 1270.61 253.133 1264.42C251.416 1260.47 249.261 1256.67 248.023 1252.56C247.225 1250.08 247.864 1247.25 247.864 1244.61Z" fill="#FFDBD0"/>
<path d="M299.64 1167.77C299.6 1156.18 306.706 1147.8 316.526 1147.36C330.737 1146.72 339.719 1154.98 341.276 1166.53C342.274 1173.96 335.408 1183.66 327.224 1187.1C324.829 1188.1 322.195 1188.85 319.6 1189.21C308.183 1190.69 301.197 1185.26 299.68 1173.76C299.4 1171.8 299.64 1169.76 299.64 1167.77Z" fill="#FFDCD2"/>
<path d="M195.309 -30.2518C195.453 -27.3336 -182.964 -35.3678 -183 -30.2519C-183.108 -10.1484 -80.4206 89.0718 -18.3833 140.699C-11.0382 146.824 -3.58512 152.769 3.97601 158.641C3.94001 158.677 3.90401 158.677 3.868 158.713C2.06773 159.83 0.987595 162.064 -0.38061 163.793C0.879579 163.361 2.3558 163.253 3.32794 162.496C4.51612 161.559 5.63222 161.019 6.74839 160.803C11.5731 164.514 16.3979 168.188 21.2946 171.791C29.1438 178.889 37.8931 185.013 45.2022 192.904C56.1839 204.757 70.874 212.899 85.0962 220.861C97.194 227.634 110.012 233.074 122.47 239.199C138.816 247.233 155.487 254.691 171.293 263.698C183.571 270.687 194.697 279.658 206.362 287.728C206.542 287.872 206.614 288.197 206.722 288.449C209.891 284.594 252.233 315.902 251.945 317.451C253.133 319.469 253.997 321.811 255.582 323.432C265.087 333.267 274.16 343.211 281.181 355.208C287.698 366.305 293.927 377.437 299.112 389.218C307.934 409.142 311.642 430.074 311.642 451.726C311.642 459.724 310.526 467.759 310.166 475.793C309.806 483.755 310.454 491.825 309.338 499.643C307.717 510.956 306.673 522.124 308.438 533.509C308.798 535.815 308.005 538.265 307.753 540.679C307.465 543.597 306.601 546.623 307.033 549.433C308.33 557.612 309.77 565.79 311.858 573.788C313.37 579.697 316.323 585.209 317.943 591.117C321.976 605.781 331.373 617.49 342.607 625.956C360.033 639.07 379.26 649.662 400.791 655.715C409.973 658.309 419.226 659.534 428.408 660.146C443.782 661.191 459.264 660.651 474.638 658.777C478.599 658.309 482.56 657.588 486.556 657.228C494.837 656.544 503.227 656.76 511.364 655.283C531.347 651.644 551.222 647.537 571.025 643.105C585.391 639.899 599.541 635.756 613.835 632.261C620.064 630.748 626.473 630.063 632.666 628.478C653.909 623.146 675.08 617.634 696.288 612.194C701.724 610.788 707.161 609.455 712.526 607.942C720.447 605.709 728.296 603.187 736.254 601.097C739.566 600.232 743.131 600.268 746.551 599.692C756.777 597.891 766.894 594.936 777.192 594.36C788.641 593.711 800.199 595.225 811.721 595.837C812.765 595.909 813.809 596.305 814.817 596.666C827.599 601.205 840.417 605.24 852.443 611.977C866.953 620.084 879.447 630.387 890.861 642.205C903.751 655.535 916.641 668.793 929.279 682.339C939.468 693.22 951.35 701.902 963.592 710.153C967.336 712.675 971.405 714.656 975.293 716.962C986.815 723.663 997.797 731.265 1010.43 735.985C1018.43 738.975 1026.28 742.398 1033.8 746.397C1043.24 751.404 1053.21 754.395 1063.51 756.809C1075.82 759.691 1088.13 761.636 1100.81 760.808C1106.97 760.411 1113.34 761.456 1119.35 760.411C1131.66 758.25 1143.44 753.746 1155.97 752.017C1163.49 750.972 1170.69 747.369 1178 744.847C1182.76 743.19 1187.51 741.389 1192.23 739.587C1204 735.156 1216.28 731.733 1227.4 726.005C1246.41 716.241 1264.81 705.289 1283.21 694.409C1295.74 686.987 1307.84 678.881 1320.08 671.027C1328.15 665.839 1336.1 660.435 1344.24 655.319C1352.56 650.095 1360.7 644.402 1369.52 640.223C1390.22 630.352 1411.32 621.273 1432.2 611.833C1435.12 610.5 1437.71 608.303 1440.7 607.33C1454.96 602.718 1469.43 598.791 1483.51 593.783C1488.98 591.838 1494.24 590.541 1499.93 590.901L1500 -30.2517L195.309 -30.2518Z" fill="#FFF6F3"/>
<path d="M1295.99 651C1308.39 458.6 1437.16 379.5 1499.99 364L1499.99 996C1483.49 993 1468.49 966 1440.99 936.5C1413.49 907 1280.49 891.5 1295.99 651Z" fill="#DAF1FF"/>
<path d="M1272.96 508.517C1279.75 508.796 1288.33 515.423 1289.73 521.85C1290.61 525.842 1290.41 529.754 1286.58 532.589C1281.82 536.142 1276.59 538.257 1270.92 535.982C1267.68 534.665 1264.61 532.269 1262.21 529.634C1258.62 525.682 1255.5 521.052 1258.42 515.263C1260.65 510.792 1266.49 508.237 1272.96 508.517Z" fill="#FFDBD0"/>
<path d="M1256.18 444.845C1264.57 445.005 1271.36 452.35 1271.28 461.212C1271.24 468.797 1265.05 474.226 1256.82 473.947C1248.95 473.667 1240.77 465.324 1241.01 457.819C1241.28 451.512 1249.19 444.725 1256.18 444.845Z" fill="#FFDBD0"/>
<path d="M1326.2 526.56C1332.11 523.926 1337.26 526.92 1342.09 529.315C1347.48 531.95 1349.72 542.888 1343.33 547.039C1340.34 548.995 1337.1 550.632 1333.99 552.389C1333.35 552.269 1332.71 552.069 1332.07 552.069C1325.84 552.069 1321.08 548.916 1319.21 543.407C1317.33 537.898 1319.25 532.508 1324.04 528.556C1324.8 527.958 1325.48 527.239 1326.2 526.56Z" fill="#FFDBD0"/>
<path d="M1286.82 395.543C1286.78 388.717 1292.33 383.248 1299.56 383.009C1306.99 382.729 1313.3 389.316 1313.06 397.06C1312.86 403.927 1306.95 409.555 1300.08 409.436C1293.69 409.316 1286.86 402.13 1286.82 395.543Z" fill="#FFDBD0"/>
<path d="M1326.84 460.693C1328.19 458.857 1329.47 456.901 1330.95 455.144C1335.02 450.354 1340.26 448.717 1345.05 450.514C1350.28 452.51 1354.59 458.977 1354.23 464.605C1353.96 469.156 1352.2 473.188 1347.72 474.945C1342.53 477.02 1337.22 476.981 1332.83 472.989C1330.67 471.033 1329.11 468.438 1327.28 466.082C1327.16 464.286 1327 462.49 1326.84 460.693Z" fill="#FFDBD0"/>
<path d="M1324.08 488.677C1328.15 490.833 1333.67 491.152 1333.9 497.819C1334.14 504.326 1332.23 509.196 1326.12 511.99C1323.84 512.03 1321.48 512.31 1319.25 512.07C1311.54 511.192 1306.55 505.603 1306.83 498.417C1307.07 492.19 1311.82 488.637 1320.17 488.517C1321.44 488.477 1322.76 488.597 1324.08 488.677Z" fill="#FFDBD0"/>
<path d="M1327.83 424.645C1329.79 429.795 1329.19 434.585 1325.76 438.936C1314.69 442.809 1310.42 441.372 1305.19 433.228C1302.07 428.398 1303.51 424.525 1306.31 420.613C1309.14 416.621 1313.46 415.344 1317.65 417.26C1321.4 418.976 1324.48 422.13 1327.83 424.645Z" fill="#FFDBD0"/>
<path d="M1286.74 464.326C1286.7 458.179 1291.81 453.428 1298.44 453.588C1304.67 453.707 1309.78 459.416 1309.74 466.242C1309.7 472.19 1305.07 477.62 1299.8 477.939C1293.37 478.218 1286.82 471.392 1286.74 464.326Z" fill="#FFDBD0"/>
<path d="M1380.12 492.19C1390.18 492.269 1397.13 499.176 1397.21 509.076C1397.25 515.064 1392.54 520.054 1386.87 520.054C1377.72 520.054 1367.06 511.271 1366.98 503.686C1366.94 496.581 1372.01 492.15 1380.12 492.19Z" fill="#FFDBD0"/>
<path d="M1356.51 388.597C1362.26 388.637 1367.29 394.625 1367.41 401.571C1367.57 410.633 1363.22 416.262 1356.27 416.062C1347.56 415.783 1341.25 410.114 1341.01 402.33C1340.77 395.503 1348.68 388.557 1356.51 388.597Z" fill="#FFDBD0"/>
<path d="M1380.64 434.585C1389.86 434.745 1394.06 438.537 1393.82 446.481C1393.62 452.27 1391.58 454.904 1385.43 457.26C1380.64 459.096 1374.17 457.379 1370.29 453.028C1367.02 449.356 1365.54 445.044 1367.22 440.254C1368.69 435.863 1372.45 434.425 1380.64 434.585Z" fill="#FFDBD0"/>
<path d="M251.85 0.0400543C251.092 2.19681 250.772 4.71303 249.455 6.47039C242.668 15.8164 235.363 24.8428 228.696 34.3086C222.788 42.656 217.678 51.5627 211.81 59.99C207.299 66.5002 202.15 72.5711 197.359 78.8816C193.846 83.4747 188.856 82.2765 184.505 81.5975C179.874 80.8786 174.964 78.5221 174.445 73.29C173.966 68.5771 174.046 62.8657 176.321 58.9915C185.383 43.6545 195.443 28.9167 205.104 13.8992C207.898 9.54577 212.449 6.03105 211.93 0.0400543C225.223 0.0400543 238.557 0.0400543 251.85 0.0400543Z" fill="#B4CFDE"/>
<path d="M349.653 0.0399705C348.296 2.99553 347.457 6.31055 345.581 8.86671C332.487 26.2806 319.114 43.4947 305.981 60.9085C303.625 64.0638 302.028 67.7782 300.032 71.213C294.484 80.7587 288.416 83.5945 277.797 81.917C273.286 81.1981 270.452 78.7218 270.013 74.2085C269.294 66.4602 270.571 59.4308 275.681 52.8007C287.178 37.943 297.996 22.5661 308.895 7.26911C310.372 5.23217 310.811 2.43637 311.729 3.05176e-05C324.384 0.0399705 336.998 0.0399705 349.653 0.0399705Z" fill="#B4CFDE"/>
<path d="M158.037 0.0400543C153.287 7.06949 148.856 14.3386 143.746 21.0884C133.407 34.8278 122.748 48.2876 112.169 61.8272C109.934 64.663 107.658 67.6185 104.944 69.975C99.355 74.7678 93.4866 75.0074 87.5386 71.1732C82.8679 68.1777 81.2312 63.0254 82.3889 56.3155C83.9058 47.5287 90.852 42.2966 95.5625 35.6665C102.109 26.5602 109.375 17.9332 116.042 8.90673C117.918 6.35057 118.796 3.03555 120.113 0.0799943C132.768 0.0400543 145.383 0.0400543 158.037 0.0400543Z" fill="#B4CFDE"/>
<path d="M226.342 117.823C238.158 117.903 242.988 126.81 238.198 136.635C233.567 146.14 227.859 155.087 222.31 164.113C218.158 170.823 213.567 177.294 209.056 183.804C205.304 189.276 199.516 191.313 193.847 189.316C189.336 187.758 186.262 182.686 185.903 176.774C185.424 168.866 186.462 161.837 192.689 155.846C196.362 152.291 199.076 147.458 201.272 142.746C205.384 133.999 212.769 128.247 219.316 121.737C221.711 119.421 225.304 118.382 226.342 117.823Z" fill="#B4CFDE"/>
<path d="M89.6542 181.767C87.4187 181.088 85.8618 180.529 84.265 180.129C74.4048 177.653 70.4128 169.345 74.7242 160.039C81.9497 144.503 92.6084 131.562 105.183 120.139C107.299 118.222 110.213 116.784 113.007 116.145C121.55 114.188 126.5 118.422 126.021 127.289C125.822 130.843 125.343 134.797 123.666 137.833C114.724 154.009 105.343 169.945 89.6542 181.767Z" fill="#B4CFDE"/>
<path d="M139.875 201.777C149.775 201.537 155.244 208.567 152.37 216.715C149.416 225.102 145.464 233.29 141.073 241.038C137.001 248.187 132.33 255.177 126.861 261.327C116.402 273.03 108.857 271.312 102.67 262.006C100.953 259.41 100.474 254.817 101.432 251.782C103.388 245.551 105.823 239.081 109.656 233.889C116.921 224.063 125.144 214.917 133.288 205.811C135.324 203.534 138.677 202.496 139.875 201.777Z" fill="#B4CFDE"/>
<path d="M1110.8 1999.51C1111.56 1997.35 1111.88 1994.84 1113.2 1993.08C1119.98 1983.73 1127.29 1974.71 1133.96 1965.24C1139.87 1956.89 1144.97 1947.99 1150.84 1939.56C1155.35 1933.05 1160.5 1926.98 1165.29 1920.67C1168.81 1916.08 1173.8 1917.27 1178.15 1917.95C1182.78 1918.67 1187.69 1921.03 1188.21 1926.26C1188.69 1930.97 1188.61 1936.68 1186.33 1940.56C1177.27 1955.9 1167.21 1970.63 1157.55 1985.65C1154.76 1990 1150.2 1993.52 1150.72 1999.51C1137.43 1999.51 1124.1 1999.51 1110.8 1999.51Z" fill="#B4CFDE"/>
<path d="M1013 1999.51C1014.36 1996.55 1015.2 1993.24 1017.07 1990.68C1030.17 1973.27 1043.54 1956.06 1056.67 1938.64C1059.03 1935.49 1060.62 1931.77 1062.62 1928.34C1068.17 1918.79 1074.24 1915.96 1084.86 1917.63C1089.37 1918.35 1092.2 1920.83 1092.64 1925.34C1093.36 1933.09 1092.08 1940.12 1086.97 1946.75C1075.48 1961.61 1064.66 1976.98 1053.76 1992.28C1052.28 1994.32 1051.84 1997.11 1050.92 1999.55C1038.27 1999.51 1025.65 1999.51 1013 1999.51Z" fill="#B4CFDE"/>
<path d="M1204.62 1999.51C1209.37 1992.48 1213.8 1985.21 1218.91 1978.46C1229.25 1964.72 1239.91 1951.26 1250.48 1937.72C1252.72 1934.89 1255 1931.93 1257.71 1929.57C1263.3 1924.78 1269.17 1924.54 1275.11 1928.38C1279.79 1931.37 1281.42 1936.52 1280.26 1943.23C1278.75 1952.02 1271.8 1957.25 1267.09 1963.88C1260.54 1972.99 1253.28 1981.62 1246.61 1990.64C1244.74 1993.2 1243.86 1996.51 1242.54 1999.47C1229.89 1999.51 1217.27 1999.51 1204.62 1999.51Z" fill="#B4CFDE"/>
<path d="M1136.31 1881.73C1124.5 1881.65 1119.66 1872.74 1124.46 1862.92C1129.09 1853.41 1134.79 1844.46 1140.34 1835.44C1144.5 1828.73 1149.09 1822.26 1153.6 1815.75C1157.35 1810.27 1163.14 1808.24 1168.81 1810.23C1173.32 1811.79 1176.39 1816.86 1176.75 1822.78C1177.23 1830.68 1176.19 1837.71 1169.96 1843.7C1166.29 1847.26 1163.58 1852.09 1161.38 1856.8C1157.27 1865.55 1149.88 1871.3 1143.34 1877.81C1140.94 1880.13 1137.35 1881.17 1136.31 1881.73Z" fill="#B4CFDE"/>
<path d="M1273 1817.78C1275.23 1818.46 1276.79 1819.02 1278.39 1819.42C1288.25 1821.9 1292.24 1830.2 1287.93 1839.51C1280.7 1855.05 1270.04 1867.99 1257.47 1879.41C1255.35 1881.33 1252.44 1882.77 1249.65 1883.4C1241.1 1885.36 1236.15 1881.13 1236.63 1872.26C1236.83 1868.71 1237.31 1864.75 1238.99 1861.72C1247.93 1845.54 1257.31 1829.61 1273 1817.78Z" fill="#B4CFDE"/>
<path d="M1222.78 1797.77C1212.88 1798.01 1207.41 1790.98 1210.28 1782.84C1213.24 1774.45 1217.19 1766.26 1221.58 1758.51C1225.65 1751.36 1230.32 1744.37 1235.79 1738.22C1246.25 1726.52 1253.8 1728.24 1259.98 1737.54C1261.7 1740.14 1262.18 1744.73 1261.22 1747.77C1259.27 1754 1256.83 1760.47 1253 1765.66C1245.73 1775.49 1237.51 1784.63 1229.37 1793.74C1227.33 1796.02 1223.98 1797.05 1222.78 1797.77Z" fill="#B4CFDE"/>
</g>
<defs>
<clipPath id="clip0_1_63">
<rect width="1500" height="2000" fill="white" transform="translate(1500 2000) rotate(-180)"/>
</clipPath>
</defs>
</svg>
